<!-- Generated by IcoMoon.io -->
<svg version="1.1" xmlns="http://www.w3.org/2000/svg" width="1024" height="1024" viewBox="0 0 1024 1024">
<title></title>
<g id="icomoon-ignore">
</g>
<path fill="#000" d="M399.393 140.498c13.019 13.018 16.218 32.919 7.936 49.362-21.594 42.874-33.774 91.329-33.774 142.752 0 175.535 142.297 317.833 317.832 317.833 51.426 0 99.878-12.177 142.754-33.775 16.444-8.282 36.343-5.082 49.361 7.94 13.018 13.018 16.218 32.917 7.936 49.361-66.283 131.601-202.679 222.029-360.273 222.029-222.662 0-403.166-180.501-403.166-403.166 0-157.593 90.428-293.99 222.031-360.273 16.443-8.282 36.344-5.082 49.362 7.936zM291.059 284.57c-48.441 55.8-77.726 128.628-77.726 208.264 0 175.535 142.299 317.833 317.833 317.833 79.637 0 152.465-29.282 208.265-77.726-15.757 1.873-31.791 2.837-48.043 2.837-222.66 0-403.165-180.501-403.165-403.166 0-16.25 0.963-32.282 2.837-48.041z"></path>
</svg>
