<!-- Generated by IcoMoon.io -->
<svg version="1.1" xmlns="http://www.w3.org/2000/svg" width="1024" height="1024" viewBox="0 0 1024 1024">
<title></title>
<g id="icomoon-ignore">
</g>
<path fill="#000" d="M512 85.333c23.565 0 42.667 19.103 42.667 42.667v42.667c0 23.564-19.102 42.667-42.667 42.667s-42.667-19.103-42.667-42.667v-42.667c0-23.564 19.102-42.667 42.667-42.667zM813.7 210.301c16.661 16.662 16.661 43.677 0 60.34l-30.17 30.17c-16.661 16.662-43.678 16.662-60.339 0s-16.661-43.677 0-60.34l30.17-30.17c16.661-16.663 43.678-16.663 60.339 0zM210.301 210.301c16.662-16.663 43.677-16.663 60.34 0l30.17 30.17c16.662 16.663 16.662 43.677 0 60.34s-43.677 16.662-60.34 0l-30.17-30.17c-16.663-16.662-16.663-43.677 0-60.34zM512 341.333c-94.257 0-170.667 76.41-170.667 170.667 0 94.255 76.41 170.667 170.667 170.667 94.255 0 170.667-76.412 170.667-170.667 0-94.257-76.412-170.667-170.667-170.667zM256 512c0-141.385 114.615-256 256-256s256 114.615 256 256c0 141.385-114.615 256-256 256s-256-114.615-256-256zM85.333 512c0-23.565 19.103-42.667 42.667-42.667h42.667c23.564 0 42.667 19.102 42.667 42.667s-19.103 42.667-42.667 42.667h-42.667c-23.564 0-42.667-19.102-42.667-42.667zM810.667 512c0-23.565 19.102-42.667 42.667-42.667h42.667c23.565 0 42.667 19.102 42.667 42.667s-19.102 42.667-42.667 42.667h-42.667c-23.565 0-42.667-19.102-42.667-42.667zM240.471 723.187c16.663-16.661 43.677-16.661 60.34 0 16.662 16.666 16.662 43.678 0 60.343l-30.17 30.17c-16.662 16.661-43.677 16.661-60.34 0-16.663-16.666-16.663-43.678 0-60.343l30.17-30.17zM723.191 783.531c-16.661-16.666-16.661-43.678 0-60.343 16.661-16.661 43.678-16.661 60.339 0l30.17 30.17c16.661 16.666 16.661 43.678 0 60.343-16.661 16.661-43.678 16.661-60.339 0l-30.17-30.17zM512 810.667c23.565 0 42.667 19.102 42.667 42.667v42.667c0 23.565-19.102 42.667-42.667 42.667s-42.667-19.102-42.667-42.667v-42.667c0-23.565 19.102-42.667 42.667-42.667z"></path>
</svg>
